<?xml version="1.0" encoding="UTF-8"?>
<!-- Generated by Pixelmator Pro 2.4.3 -->
<svg width="188" height="195" viewBox="0 0 188 195" xmlns="http://www.w3.org/2000/svg" xmlns:xlink="http://www.w3.org/1999/xlink">
    <path id="Rectangle" fill="#ffffff" fill-rule="evenodd" stroke="none" d="M 25.837282 147.342133 L 156.731232 154.689774 L 163.000809 43.001053 L 32.106846 35.653412 Z"/>
    <path id="Path-copy" fill="#62cd95" fill-rule="evenodd" stroke="none" d="M 93.949219 195.001953 C 82.296234 194.996948 72.285606 187.996643 67.849609 177.972656 C 58.370617 183.458649 46.163227 183.212646 36.740234 176.347656 C 27.448242 169.578644 23.709877 157.649567 25.796875 147.058594 L 55.148438 147.058594 L 63 112 L 115.054688 112.123047 L 120.291016 90 L 65.921875 90 L 70.466797 72 L 157.755859 72 L 162.369141 47.681641 C 172.984116 49.048645 183.07666 56.544937 186.597656 67.419922 C 190.192657 78.52092 186.642075 90.219978 178.496094 97.542969 C 186.634079 104.875961 190.174362 116.577789 186.568359 127.675781 C 182.961365 138.775772 173.220016 146.149338 162.332031 147.277344 C 164.614044 158.002335 160.609726 169.555145 151.177734 176.410156 C 141.74675 183.263153 129.540298 183.496948 120.070313 178.001953 C 115.622322 188.018936 105.602203 195.006943 93.949219 195.001953 Z M 162.369141 47.681641 L 44.652344 47.681641 L 25.796875 147.058594 C 15.116886 145.743591 4.942293 138.506058 1.404297 127.580078 C -2.1917 116.478081 1.358868 104.777115 9.505859 97.453125 C 1.366868 90.120132 -2.171449 78.419258 1.435547 67.322266 C 5.041543 56.224274 14.780931 48.848755 25.669922 47.71875 C 23.388924 36.99678 27.393276 25.445801 36.822266 18.591797 C 46.254261 11.735794 58.460648 11.501999 67.931641 17 C 72.38063 6.980011 82.399796 -0.005997 94.050781 0 C 105.703766 0.005997 115.715355 7.00441 120.152344 17.025391 C 129.629333 11.539398 141.836731 11.784393 151.261719 18.650391 C 160.482697 25.3694 164.351135 37.156662 162.369141 47.681641 Z"/>
</svg>
