<?xml version="1.0" encoding="UTF-8"?>
<!-- Generated by Pixelmator Pro 2.4.3 -->
<svg width="1000" height="1000" viewBox="0 0 1000 1000" xmlns="http://www.w3.org/2000/svg" xmlns:xlink="http://www.w3.org/1999/xlink">
    <path id="Shape" fill="#ffffff" fill-rule="evenodd" stroke="none" d="M 190.404297 725.810547 L 781.995728 781.004364 L 810.315552 274.690369 L 216.842407 221.338806 Z"/>
    <path id="framedate" fill="#42af76" fill-rule="evenodd" stroke="none" d="M 499.410156 942 C 446.643311 941.977356 401.307709 910.279114 381.220703 864.888672 C 338.298065 889.730225 283.026428 888.621033 240.357422 857.535156 C 198.281601 826.883911 181.346573 772.868042 190.796875 724.910156 L 323.708984 724.910156 L 359.263672 566.15625 L 594.978516 566.71875 L 618.683594 466.537109 L 372.494141 466.537109 L 393.070313 385.029297 L 788.330078 385.029297 L 809.224609 274.908203 C 857.291199 281.098206 902.989868 315.045105 918.933594 364.289063 C 935.212402 414.556335 919.136475 467.533569 882.25 500.693359 C 919.100281 533.898438 935.131348 586.886963 918.802734 637.140625 C 902.469604 687.403381 858.363342 720.794556 809.060547 725.902344 C 819.393921 774.467041 801.258606 826.775696 758.548828 857.816406 C 715.843628 888.848022 660.569275 889.907715 617.6875 865.025391 C 597.546204 910.384155 552.177002 942.022583 499.410156 942 Z M 809.224609 274.908203 L 276.185547 274.908203 L 190.796875 724.910156 C 142.435944 718.955566 96.366394 686.179871 80.345703 636.705078 C 64.062378 586.433228 80.142151 533.45343 117.033203 500.289063 C 80.178375 467.083984 64.153191 414.094849 80.486328 363.845703 C 96.814934 313.59198 140.915314 280.19696 190.222656 275.080078 C 179.89389 226.529053 198.028442 174.219666 240.724609 143.183594 C 283.434387 112.138428 338.70932 111.08252 381.595703 135.978516 C 401.741547 90.60614 447.109406 58.972839 499.867188 59 C 552.634033 59.027161 597.971008 90.714966 618.0625 136.091797 C 660.976013 111.250244 716.247681 112.360779 758.925781 143.451172 C 800.680054 173.876099 818.199463 227.249146 809.224609 274.908203 Z"/>
    <path id="framedate-copy-2" fill="#80dbab" fill-rule="evenodd" stroke="none" d="M 191 725 C 142.639023 719.04541 96.366341 686.180298 80.345634 636.705444 C 64.062294 586.433533 80.141869 533.453857 117.032959 500.289429 C 80.178093 467.08429 64.152855 414.095459 80.486008 363.846252 C 96.814629 313.592468 140.914581 280.197144 190.22197 275.080261 C 179.893188 226.529175 198.028549 174.219604 240.724762 143.183472 C 283.43457 112.138245 338.710083 111.08313 381.596497 135.979126 C 401.742371 90.606689 447.11026 58.972839 499.868103 59 C 552.63501 59.027161 597.971191 90.715393 618.062683 136.092285 C 660.976257 111.250732 716.247192 112.360107 758.925354 143.450562 C 800.679688 173.875488 818.199219 227.249146 809.224365 274.908264 L 276.184967 274.908264 Z"/>
</svg>
