<?xml version="1.0" encoding="UTF-8"?>
<!-- Generated by Pixelmator Pro 2.4.3 -->
<svg width="1440" height="140" viewBox="0 0 1440 140" xmlns="http://www.w3.org/2000/svg" xmlns:xlink="http://www.w3.org/1999/xlink">
    <path id="Path" fill="#e1f7f1" stroke="none" d="M -93.624504 0.386444 L -93.624504 65.842163 C -91.393776 66.622429 -89.263046 66.452354 -87.172379 66.952522 C -78.259338 69.07325 -66.555435 64.371666 -62.1339 64.321648 C -57.712364 64.271629 -52.760742 66.502373 -47.909126 65.6521 C -22.960644 63.731453 57.886589 71.424034 73.161766 68.262978 C 85.855988 65.642082 122.018219 64.861824 126.929909 66.552391 C 133.762177 68.913193 141.214752 66.772469 148.367203 67.342667 C 158.540558 68.162941 168.914047 67.662773 179.117569 67.682777 C 200.22467 67.722786 221.331757 67.742798 242.438858 67.76281 C 262.675659 67.782806 283.002594 68.202942 303.199371 66.562393 C 315.483521 65.562057 327.847687 68.102921 339.901825 65.48204 C 348.064484 63.711441 385.957275 62.280952 396.490845 64.351654 C 411.455994 67.292648 426.240875 68.062897 441.386017 66.832489 C 453.900238 65.822151 466.314484 65.92218 478.828705 64.871834 C 491.322906 63.82148 503.536987 62.160912 515.911133 63.721436 C 531.676514 66.182274 547.481812 68.953201 563.477234 68.222954 C 579.262573 67.502708 594.887817 64.751785 610.543152 62.591064 C 626.458496 61.000519 641.953674 61.69075 657.779053 63.75145 C 672.273926 65.972198 686.778809 64.451683 701.413757 65.321983 C 716.869019 66.242294 732.324219 68.463043 747.569336 66.002205 C 763.634766 63.411339 856.726196 62.020866 886.936401 64.04155 C 901.841431 65.041893 929.160706 68.523064 944.085693 69.233307 C 959.530884 69.963547 997.793823 64.62175 1002.595459 65.872169 C 1013.829224 68.813148 1031.495239 71.313995 1042.79895 69.233307 C 1054.082764 67.162598 1139.931763 67.18261 1160.758789 69.013229 C 1180.925659 70.783821 1210.915771 60.090225 1231.152588 60.620399 C 1272.016357 61.69075 1303.15686 64.821815 1343.990601 66.73246 C 1365.197754 67.722786 1386.494995 61.420654 1407.532104 64.241615 C 1414.884521 65.41201 1422.197021 61.790794 1429.539551 63.031204 C 1435.851685 64.10157 1442.333862 65.402016 1448.776001 65.201935 C 1453.387573 65.051888 1492.940918 63.141243 1496.542114 65.852158 C 1501.223755 69.383354 1520.750366 70.083588 1533.274536 67.642761 L 1533.274536 0.386444 L -93.624504 0.386444 Z"/>
</svg>
